<?xml version="1.0" standalone="no"?>
<!DOCTYPE svg PUBLIC "-//W3C//DTD SVG 20010904//EN"
 "http://www.w3.org/TR/2001/REC-SVG-20010904/DTD/svg10.dtd">
<svg version="1.0" xmlns="http://www.w3.org/2000/svg"
 width="384.000000pt" height="384.000000pt" viewBox="0 0 384.000000 384.000000"
 preserveAspectRatio="xMidYMid meet">
<metadata>
Created by potrace 1.14, written by Peter Selinger 2001-2017
</metadata>
<g transform="translate(0.000000,384.000000) scale(0.100000,-0.100000)"
fill="#000000" stroke="none">
<path d="M2780 3461 c-85 -37 -182 -80 -215 -95 -33 -16 -64 -29 -70 -30 -5
-1 -17 -6 -25 -11 -8 -5 -17 -10 -20 -10 -11 -1 -206 -88 -214 -96 -6 -5 -16
-9 -22 -9 -11 0 -52 -17 -194 -82 -132 -60 -189 -81 -233 -82 -40 -2 -52 -7
-71 -31 -16 -19 -28 -26 -40 -22 -11 5 -26 -2 -42 -18 -15 -15 -36 -25 -54
-25 -17 0 -39 -9 -51 -21 -15 -15 -27 -19 -50 -14 -25 6 -35 2 -63 -28 -18
-19 -56 -46 -85 -60 -52 -24 -55 -25 -85 -9 -17 10 -38 17 -46 17 -31 -1 -81
-39 -85 -65 -3 -21 -18 -50 -26 -50 -16 0 -23 -4 -46 -23 -26 -24 -20 -47 14
-47 22 0 24 -3 18 -32 -17 -84 -28 -110 -65 -150 -50 -56 -61 -45 -65 61 -2
45 -8 87 -14 95 -6 7 -8 16 -4 19 3 4 1 7 -5 7 -7 0 -12 9 -12 20 0 30 -73 98
-112 105 -56 9 -98 -8 -98 -39 0 -12 7 -45 14 -72 27 -91 42 -207 29 -227 -9
-15 -15 -104 -15 -207 1 -112 4 -150 15 -150 4 0 7 -7 7 -15 0 -21 76 -95 97
-95 35 0 47 18 49 69 2 28 -1 51 -6 51 -5 0 -7 7 -4 15 3 8 2 20 -2 27 -10 15
-13 39 -18 126 -3 47 -1 62 10 62 12 0 44 -49 44 -67 1 -28 24 -87 44 -110 22
-25 24 -26 47 -9 13 9 23 19 22 21 -2 3 -2 6 -2 8 1 1 3 27 4 57 3 59 7 80 23
122 19 48 28 37 27 -35 -1 -40 3 -92 7 -117 5 -25 11 -58 13 -75 2 -16 11 -35
20 -41 8 -6 15 -16 15 -21 0 -10 -118 -59 -132 -55 -5 1 -8 -2 -8 -6 0 -5 -6
-9 -14 -9 -18 0 -149 -55 -157 -66 -3 -5 -8 -7 -11 -5 -4 3 -71 -29 -93 -44
-140 -101 -164 -143 -125 -223 11 -22 33 -77 34 -85 1 -3 12 -23 26 -45 13
-22 28 -47 31 -55 21 -50 181 -207 270 -266 83 -55 174 -104 193 -104 6 0 18
-6 25 -12 6 -7 15 -13 19 -13 12 -1 116 -36 132 -44 8 -4 23 -7 33 -5 9 1 17
-1 17 -5 0 -4 8 -7 18 -8 9 0 28 -4 42 -7 14 -3 63 -11 110 -17 47 -6 112 -19
145 -30 94 -29 205 -36 320 -21 102 13 140 19 140 22 0 1 11 4 25 6 63 11 156
66 212 126 32 34 58 65 58 69 0 4 30 29 68 55 76 54 255 231 246 245 -3 5 -1
9 3 9 11 0 59 79 55 91 -1 5 2 9 7 9 8 0 20 24 26 50 1 3 9 22 18 44 9 21 14
42 11 47 -3 5 -1 9 4 9 5 0 9 6 9 13 0 6 4 30 8 52 10 50 11 219 2 263 -4 17
-10 46 -13 64 -12 65 -64 108 -149 123 -22 4 -49 9 -60 12 -11 2 -44 6 -73 8
-30 3 -57 7 -61 9 -4 3 -49 6 -101 7 -52 1 -117 8 -144 15 -92 25 -110 27
-218 27 l-108 0 -10 33 c-14 43 -16 74 -7 154 10 87 11 237 3 277 -9 38 -34
29 254 92 124 27 263 59 310 70 47 11 99 22 115 25 17 3 59 12 95 21 36 9 97
23 135 31 111 23 116 24 200 44 44 10 94 22 110 25 17 3 35 7 40 9 6 1 47 11
93 21 45 10 82 21 82 24 0 3 -22 30 -48 58 l-47 53 -60 -16 c-33 -8 -67 -18
-75 -21 -8 -3 -24 -7 -35 -8 -11 -2 -60 -14 -110 -28 -49 -14 -146 -40 -215
-57 -202 -52 -380 -99 -460 -121 -41 -12 -82 -22 -91 -24 -10 -2 -66 -17 -125
-33 -60 -16 -122 -33 -139 -36 -16 -4 -37 -9 -46 -12 -12 -3 -23 8 -38 36 -11
22 -21 42 -21 44 0 4 98 47 115 51 5 1 24 7 40 14 17 6 95 37 175 68 80 31
159 62 175 69 17 7 101 40 185 73 85 33 225 87 310 121 85 34 163 64 173 67 9
3 17 8 17 12 0 11 -117 91 -132 90 -7 0 -83 -31 -168 -68z m-1394 -726 c-19
-7 -42 -19 -51 -28 -14 -15 -14 -17 2 -25 10 -5 35 -8 56 -7 20 2 37 0 38 -4
0 -3 2 -15 5 -26 16 -74 -11 -169 -63 -223 -7 -7 -13 -20 -13 -28 0 -8 -5 -14
-11 -14 -5 0 -7 -4 -4 -10 3 -5 3 -10 -2 -10 -4 0 -18 -23 -31 -50 -21 -46
-29 -90 -36 -189 -1 -19 -8 -37 -14 -39 -8 -2 -12 18 -13 70 -3 133 2 184 26
293 4 17 8 37 10 45 2 8 4 15 5 15 5 0 11 91 12 158 0 50 4 80 11 82 7 2 21 6
32 11 11 4 23 8 27 8 3 1 10 5 14 9 5 4 14 0 21 -9 11 -16 9 -19 -21 -29z"/>
<path d="M2608 3233 c-9 -2 -23 -17 -30 -34 -14 -32 -16 -33 -37 -20 -9 6 -22
6 -34 -1 -39 -21 -2 -127 39 -111 9 3 12 13 7 31 -5 20 -3 24 10 19 19 -7 53
21 59 48 4 17 8 14 21 -17 19 -43 29 -50 52 -42 10 4 14 12 9 23 -3 9 -7 22
-7 29 0 6 -4 12 -9 12 -5 0 -7 4 -4 9 6 9 -38 62 -51 60 -4 -1 -16 -3 -25 -6z"/>
<path d="M2394 3095 c-12 -67 -4 -85 23 -56 15 17 28 21 57 17 40 -5 40 -4 -7
57 -42 54 -60 49 -73 -18z"/>
<path d="M2332 3095 c-13 -28 -27 -32 -36 -10 -7 18 -36 20 -36 3 0 -17 78
-93 87 -85 3 4 7 19 9 34 1 16 5 40 9 56 10 36 -17 38 -33 2z"/>
<path d="M2201 3062 c-15 -28 -24 -92 -14 -92 6 0 18 9 28 20 13 15 21 17 31
9 24 -20 35 0 17 29 -20 31 -39 52 -47 52 -3 0 -10 -8 -15 -18z"/>
<path d="M2212 2814 c-46 -24 -101 -46 -121 -49 -77 -12 -74 -8 -66 -99 10
-106 9 -139 -4 -209 -13 -69 -2 -103 35 -118 29 -10 84 -5 115 11 10 6 19 8
19 4 0 -3 6 -2 13 4 8 7 50 10 108 8 102 -4 127 -8 182 -31 41 -17 107 -20
107 -5 0 6 7 10 15 10 21 0 36 60 20 85 -14 24 -57 46 -99 52 -87 12 -234 8
-296 -9 -93 -26 -93 -26 -87 28 6 54 17 64 61 54 51 -11 148 3 171 26 19 19
19 29 0 48 -13 12 -35 14 -114 11 -91 -4 -99 -2 -104 16 -3 10 0 19 6 20 118
8 238 66 234 112 -4 40 -23 59 -67 67 -39 7 -51 4 -128 -36z"/>
<path d="M2805 1382 c-26 -5 -58 -39 -45 -47 6 -4 8 -10 5 -15 -3 -5 2 -16 11
-24 14 -15 13 -16 -11 -16 -21 0 -26 -4 -21 -16 3 -9 6 -20 6 -24 0 -16 71
-23 111 -11 35 11 38 14 29 32 -6 11 -8 24 -5 29 3 5 1 11 -5 15 -6 4 -8 11
-5 16 4 5 1 9 -4 9 -6 0 -11 9 -11 20 0 11 -6 20 -14 20 -8 0 -16 4 -18 8 -1
4 -12 6 -23 4z"/>
<path d="M2925 1231 c-11 -5 -29 -19 -40 -31 l-20 -22 25 -20 c14 -11 50 -42
80 -68 30 -27 66 -58 80 -69 14 -11 30 -25 37 -31 7 -5 15 -10 19 -10 3 0 17
-9 31 -19 55 -44 163 -35 203 16 l20 26 -24 13 c-14 7 -38 24 -53 38 -15 14
-31 26 -34 26 -5 0 -25 15 -67 51 -13 11 -13 23 4 64 7 17 6 18 -8 7 -14 -11
-23 -10 -57 8 l-41 20 10 -26 c13 -34 5 -60 -21 -67 -16 -4 -18 -3 -9 8 7 9 9
27 5 44 -5 24 -14 33 -43 41 -43 12 -69 12 -97 1z m215 -101 c8 -5 11 -12 8
-15 -4 -4 -17 0 -30 9 -24 17 -5 23 22 6z"/>
<path d="M3263 1190 c-1 -11 7 -25 18 -31 24 -12 24 -12 34 20 5 15 4 21 -3
17 -6 -3 -13 -2 -17 4 -11 17 -31 11 -32 -10z"/>
<path d="M2596 1133 c-38 -20 -38 -57 0 -113 38 -56 44 -76 17 -61 -24 12 -75
17 -91 8 -6 -5 -12 -5 -12 -2 0 3 -10 -3 -21 -14 -18 -17 -21 -30 -20 -82 1
-67 2 -66 -51 -18 -30 26 -99 59 -125 59 -32 0 -62 -16 -90 -48 -24 -26 -24
-28 18 -82 34 -44 87 -143 129 -240 92 -212 104 -230 159 -230 38 0 133 54
184 106 26 26 26 27 9 56 -9 16 -25 38 -34 48 -9 10 -14 21 -11 24 4 3 2 6 -4
6 -6 0 -14 11 -17 25 -4 14 -11 25 -17 25 -6 0 -7 5 -4 10 4 6 0 21 -8 33 -12
20 -50 110 -53 130 -1 4 -3 9 -4 12 -1 3 -3 8 -4 13 -1 4 -4 12 -7 17 -3 6 -6
24 -8 42 -2 24 2 33 18 38 39 12 94 -32 203 -163 73 -88 134 -115 172 -76 15
14 15 18 0 43 -9 15 -43 56 -75 91 -33 34 -59 65 -59 67 0 2 -19 28 -42 58
-81 101 -93 118 -100 142 -6 21 -3 24 15 21 12 -2 24 -5 27 -8 3 -3 24 -14 48
-24 23 -11 42 -23 42 -28 0 -4 5 -8 12 -8 6 0 39 -24 72 -52 34 -29 74 -64 90
-78 16 -14 37 -32 46 -40 38 -34 114 -74 140 -72 8 0 28 5 43 11 l28 11 -21
30 c-12 17 -27 30 -34 30 -6 0 -27 13 -46 30 -19 16 -38 29 -42 30 -4 0 -22
14 -40 31 -18 17 -60 49 -93 72 -33 22 -63 45 -67 51 -5 7 -8 7 -8 1 0 -7 -3
-7 -8 0 -10 14 -101 61 -137 71 -45 12 -93 11 -119 -3z"/>
<path d="M811 1056 c-7 -8 -14 -23 -16 -33 -2 -10 -4 -20 -5 -23 -1 -3 -2 -9
0 -15 1 -6 -3 -6 -9 0 -6 6 -12 23 -13 37 -2 21 -5 24 -15 16 -7 -6 -13 -17
-13 -25 0 -8 -4 -11 -10 -8 -5 3 -10 2 -10 -4 0 -6 -11 -13 -24 -17 l-24 -6
23 -22 c19 -19 24 -44 16 -86 -1 -3 -14 -20 -30 -37 -53 -58 -94 -142 -94
-191 0 -40 4 -49 42 -84 24 -21 47 -36 51 -33 5 3 11 1 15 -5 8 -13 111 -13
136 1 33 17 48 8 36 -21 -23 -57 -13 -113 26 -147 52 -44 214 -112 231 -96 2
3 2 16 0 29 -2 13 0 24 5 24 5 0 9 10 9 23 0 24 6 53 22 102 6 18 12 41 14 51
3 10 9 38 14 62 5 23 8 42 6 42 -3 0 0 9 6 21 7 11 14 33 16 47 3 15 10 45 16
67 20 74 15 119 -16 151 -12 11 -51 34 -60 34 -7 0 -26 -21 -66 -71 -100 -126
-231 -237 -312 -263 -21 -6 -80 13 -73 24 3 5 1 11 -4 14 -8 6 13 63 28 76 22
19 111 131 111 139 0 6 4 11 8 11 5 0 18 18 31 40 12 22 19 40 15 40 -3 0 -2
6 4 13 13 16 11 79 -4 94 -7 7 -14 17 -16 22 -6 18 -54 23 -67 7z"/>
<path d="M586 957 c-13 -14 -16 -22 -8 -25 7 -2 12 -13 12 -25 0 -13 3 -17 8
-11 4 6 18 17 31 24 21 11 22 14 8 22 -10 5 -17 16 -17 23 0 20 -11 17 -34 -8z"/>
<path d="M1373 878 c-6 -7 -10 -20 -11 -28 0 -8 -4 -28 -9 -45 -5 -16 -9 -37
-8 -45 0 -8 -3 -18 -7 -21 -5 -3 -9 -24 -11 -47 -1 -23 -5 -42 -9 -42 -4 0 -5
-9 -3 -20 2 -11 0 -20 -4 -20 -5 0 -12 -21 -16 -47 -3 -27 -13 -69 -20 -96 -8
-26 -14 -49 -15 -52 0 -3 0 -6 -1 -7 0 -2 -2 -19 -3 -38 -3 -44 11 -89 36
-116 35 -39 115 -75 169 -77 l50 -2 4 95 c4 112 12 185 21 220 10 35 11 41 17
73 9 46 18 67 28 67 6 0 8 4 4 9 -7 12 43 51 65 51 11 0 25 -15 35 -36 17 -35
19 -59 29 -262 5 -105 27 -161 69 -176 19 -7 32 -5 52 8 26 17 27 20 23 106
-2 63 -8 93 -19 106 -13 15 -14 24 -5 44 13 29 39 40 29 12 -4 -9 -9 -19 -12
-22 -4 -3 4 -15 16 -27 17 -17 23 -18 23 -7 0 8 7 17 15 20 12 5 10 12 -10 36
-32 38 -28 75 18 168 26 52 37 66 58 68 51 6 68 -41 94 -257 17 -153 40 -212
94 -248 38 -25 58 -28 113 -13 49 14 59 43 24 73 -25 22 -55 81 -63 127 -16
96 -44 211 -57 242 -39 91 -114 143 -206 143 -66 0 -105 -26 -141 -92 l-23
-41 -18 28 c-27 45 -78 71 -138 71 -45 0 -84 -23 -115 -69 -14 -20 -25 -34
-25 -32 -2 25 -13 95 -21 137 -7 37 -18 59 -36 73 -29 23 -66 26 -80 8z"/>
</g>
</svg>
